<svg width="13" height="12" viewBox="0 0 13 12" fill="none" xmlns="http://www.w3.org/2000/svg">
<g id="Group">
<path id="Vector" fill-rule="evenodd" clip-rule="evenodd" d="M8.77649 11.0665C8.05649 11.04 6.01599 10.758 3.87899 8.62149C1.74249 6.48449 1.46099 4.44449 1.43399 3.72399C1.39399 2.62599 2.23499 1.55949 3.20649 1.14299C3.32348 1.09247 3.45159 1.07324 3.57825 1.08717C3.70492 1.10111 3.82578 1.14774 3.92899 1.22249C4.72899 1.80549 5.28099 2.68749 5.75499 3.38099C5.85928 3.53335 5.90387 3.71876 5.88027 3.90188C5.85666 4.08501 5.76651 4.25305 5.62699 4.37399L4.65149 5.09849C4.60436 5.13252 4.57118 5.1825 4.55813 5.23915C4.54507 5.29579 4.55301 5.35526 4.58049 5.40649C4.80149 5.80799 5.19449 6.40599 5.64449 6.85599C6.09499 7.30599 6.72099 7.72499 7.15049 7.97099C7.20434 8.00122 7.26773 8.00967 7.32762 7.9946C7.38751 7.97953 7.43935 7.9421 7.47249 7.88999L8.10749 6.92349C8.22423 6.76841 8.39645 6.66452 8.58808 6.63358C8.7797 6.60263 8.97587 6.64704 9.13549 6.75749C9.83899 7.24449 10.66 7.78699 11.261 8.55649C11.3418 8.66044 11.3932 8.78419 11.4098 8.91481C11.4265 9.04542 11.4077 9.1781 11.3555 9.29899C10.937 10.2755 9.87799 11.107 8.77649 11.0665Z" fill="black"/>
</g>
</svg>
