<svg width="38" height="38" viewBox="0 0 38 38" fill="none" xmlns="http://www.w3.org/2000/svg">
<g id="Group">
<path id="Vector" fill-rule="evenodd" clip-rule="evenodd" d="M26.2077 34.6218C23.9277 34.5401 17.4662 33.6706 10.699 27.083C3.93341 20.4939 3.04199 14.2039 2.95649 11.9824C2.82982 8.59689 5.49299 5.30852 8.56941 4.02431C8.93987 3.86855 9.34556 3.80925 9.74666 3.85222C10.1478 3.89519 10.5305 4.03897 10.8573 4.26943C13.3907 6.06702 15.1387 8.78652 16.6397 10.9248C16.9699 11.3946 17.1111 11.9663 17.0364 12.5309C16.9616 13.0955 16.6761 13.6137 16.2343 13.9866L13.1452 16.2204C12.996 16.3254 12.8909 16.4795 12.8496 16.6541C12.8082 16.8288 12.8334 17.0121 12.9204 17.1701C13.6202 18.4081 14.8647 20.2519 16.2897 21.6394C17.7163 23.0269 19.6987 24.3188 21.0587 25.0773C21.2293 25.1705 21.43 25.1966 21.6196 25.1501C21.8093 25.1037 21.9735 24.9882 22.0784 24.8276L24.0892 21.8475C24.4589 21.3694 25.0043 21.049 25.6111 20.9536C26.2179 20.8582 26.8391 20.9951 27.3446 21.3357C29.5723 22.8373 32.1722 24.51 34.0753 26.8826C34.3312 27.2031 34.494 27.5847 34.5467 27.9874C34.5993 28.3902 34.5399 28.7993 34.3746 29.172C33.0493 32.1828 29.6958 34.7466 26.2077 34.6218Z" fill="white"/>
</g>
</svg>
